<?xml version="1.0" encoding="UTF-8" standalone="no"?>
<svg
   xmlns:dc="http://purl.org/dc/elements/1.1/"
   xmlns:cc="http://creativecommons.org/ns#"
   xmlns:rdf="http://www.w3.org/1999/02/22-rdf-syntax-ns#"
   xmlns:svg="http://www.w3.org/2000/svg"
   xmlns="http://www.w3.org/2000/svg"
   xmlns:sodipodi="http://sodipodi.sourceforge.net/DTD/sodipodi-0.dtd"
   xmlns:inkscape="http://www.inkscape.org/namespaces/inkscape"
   width="32"
   height="32"
   enable-background="new 0 0 32 32"
   viewBox="0 0 32 32"
   version="1.1"
   id="svg60"
   sodipodi:docname="rost-logo.svg"
   inkscape:version="0.92.4 (5da689c313, 2019-01-14)"
   inkscape:export-filename="C:\Users\isals\Desktop\rost-logo.png"
   inkscape:export-xdpi="555.01855"
   inkscape:export-ydpi="555.01855">
  <metadata
     id="metadata66">
    <rdf:RDF>
      <cc:Work
         rdf:about="">
        <dc:format>image/svg+xml</dc:format>
        <dc:type
           rdf:resource="http://purl.org/dc/dcmitype/StillImage" />
        <dc:title />
      </cc:Work>
    </rdf:RDF>
  </metadata>
  <defs
     id="defs64" />
  <sodipodi:namedview
     pagecolor="#ffffff"
     bordercolor="#666666"
     borderopacity="1"
     objecttolerance="10"
     gridtolerance="10"
     guidetolerance="10"
     inkscape:pageopacity="0"
     inkscape:pageshadow="2"
     inkscape:window-width="1920"
     inkscape:window-height="1017"
     id="namedview62"
     showgrid="false"
     inkscape:zoom="10.429825"
     inkscape:cx="-43.307746"
     inkscape:cy="15.078764"
     inkscape:window-x="-8"
     inkscape:window-y="-8"
     inkscape:window-maximized="1"
     inkscape:current-layer="svg60" />
  <path
     d="M 36.331678,41.076271 H -4.196084 c -0.31707,0 -0.619836,-0.124864 -0.843931,-0.343966 l -3.575979,-3.533898 c -0.22171,-0.221458 -0.348062,-0.520661 -0.348062,-0.834 V -0.152542 c 0,-0.652594 0.534013,-1.177966 1.191993,-1.177966 0.65798,0 1.191993,0.525372 1.191993,1.177966 v 36.029271 l 2.877471,2.84361 h 39.540792 l 2.877471,-2.84361 V -3.198763 l -2.877471,-2.84361 H -3.702599 l -2.183731,2.155678 c -0.464877,0.459407 -1.220601,0.459407 -1.685478,0 -0.464877,-0.457051 -0.464877,-1.203881 0,-1.663288 l 2.534177,-2.504356 c 0.221711,-0.219102 0.524477,-0.343966 0.841547,-0.343966 h 40.527762 c 0.31707,0 0.619836,0.124864 0.843931,0.343966 l 3.575979,3.533898 c 0.22171,0.221458 0.348062,0.520661 0.348062,0.834 v 40.050848 c 0,0.313339 -0.126352,0.612542 -0.348062,0.834 l -3.575979,3.533898 c -0.224095,0.219102 -0.526861,0.343966 -0.843931,0.343966 z m -48.871713,-7.067796 h -4.767972 c -0.65798,0 -1.191993,0.527728 -1.191993,1.177966 0,0.650237 0.534013,1.177966 1.191993,1.177966 h 4.767972 c 0.65798,0 1.191993,-0.527729 1.191993,-1.177966 0,-0.650238 -0.534013,-1.177966 -1.191993,-1.177966 z m 0,-4.711865 h -4.767972 c -0.65798,0 -1.191993,0.527729 -1.191993,1.177966 0,0.650238 0.534013,1.177966 1.191993,1.177966 h 4.767972 c 0.65798,0 1.191993,-0.527728 1.191993,-1.177966 0,-0.650237 -0.534013,-1.177966 -1.191993,-1.177966 z m 0,-4.711864 h -4.767972 c -0.65798,0 -1.191993,0.527729 -1.191993,1.177966 0,0.650237 0.534013,1.177966 1.191993,1.177966 h 4.767972 c 0.65798,0 1.191993,-0.527729 1.191993,-1.177966 0,-0.650237 -0.534013,-1.177966 -1.191993,-1.177966 z m 0,-4.711865 h -4.767972 c -0.65798,0 -1.191993,0.527729 -1.191993,1.177966 0,0.650238 0.534013,1.177967 1.191993,1.177967 h 4.767972 c 0.65798,0 1.191993,-0.527729 1.191993,-1.177967 0,-0.650237 -0.534013,-1.177966 -1.191993,-1.177966 z m 0,-4.711864 h -4.767972 c -0.65798,0 -1.191993,0.527729 -1.191993,1.177966 0,0.650237 0.534013,1.177966 1.191993,1.177966 h 4.767972 c 0.65798,0 1.191993,-0.527729 1.191993,-1.177966 0,-0.650237 -0.534013,-1.177966 -1.191993,-1.177966 z m 0,-4.711865 h -4.767972 c -0.65798,0 -1.191993,0.527729 -1.191993,1.177967 0,0.650237 0.534013,1.177966 1.191993,1.177966 h 4.767972 c 0.65798,0 1.191993,-0.527729 1.191993,-1.177966 0,-0.650238 -0.534013,-1.177967 -1.191993,-1.177967 z m 0,-4.711864 h -4.767972 c -0.65798,0 -1.191993,0.527729 -1.191993,1.177966 0,0.650237 0.534013,1.177966 1.191993,1.177966 h 4.767972 c 0.65798,0 1.191993,-0.527729 1.191993,-1.177966 0,-0.650237 -0.534013,-1.177966 -1.191993,-1.177966 z m 0,-4.711864 h -4.767972 c -0.65798,0 -1.191993,0.527729 -1.191993,1.177966 0,0.650237 0.534013,1.177966 1.191993,1.177966 h 4.767972 c 0.65798,0 1.191993,-0.527729 1.191993,-1.177966 0,-0.650237 -0.534013,-1.177966 -1.191993,-1.177966 z m 0,-4.711865 h -4.767972 c -0.65798,0 -1.191993,0.527729 -1.191993,1.177966 0,0.650238 0.534013,1.177967 1.191993,1.177967 h 4.767972 c 0.65798,0 1.191993,-0.527729 1.191993,-1.177967 0,-0.650237 -0.534013,-1.177966 -1.191993,-1.177966 z m 61.983636,37.694916 h -4.767972 c -0.65798,0 -1.191993,0.527728 -1.191993,1.177966 0,0.650237 0.534013,1.177966 1.191993,1.177966 h 4.767972 c 0.65798,0 1.191993,-0.527729 1.191993,-1.177966 0,-0.650238 -0.534013,-1.177966 -1.191993,-1.177966 z m 0,-4.711865 h -4.767972 c -0.65798,0 -1.191993,0.527729 -1.191993,1.177966 0,0.650238 0.534013,1.177966 1.191993,1.177966 h 4.767972 c 0.65798,0 1.191993,-0.527728 1.191993,-1.177966 0,-0.650237 -0.534013,-1.177966 -1.191993,-1.177966 z m 0,-4.711864 h -4.767972 c -0.65798,0 -1.191993,0.527729 -1.191993,1.177966 0,0.650237 0.534013,1.177966 1.191993,1.177966 h 4.767972 c 0.65798,0 1.191993,-0.527729 1.191993,-1.177966 0,-0.650237 -0.534013,-1.177966 -1.191993,-1.177966 z m 0,-4.711865 h -4.767972 c -0.65798,0 -1.191993,0.527729 -1.191993,1.177966 0,0.650238 0.534013,1.177967 1.191993,1.177967 h 4.767972 c 0.65798,0 1.191993,-0.527729 1.191993,-1.177967 0,-0.650237 -0.534013,-1.177966 -1.191993,-1.177966 z m 0,-4.711864 h -4.767972 c -0.65798,0 -1.191993,0.527729 -1.191993,1.177966 0,0.650237 0.534013,1.177966 1.191993,1.177966 h 4.767972 c 0.65798,0 1.191993,-0.527729 1.191993,-1.177966 0,-0.650237 -0.534013,-1.177966 -1.191993,-1.177966 z m 0,-4.711865 h -4.767972 c -0.65798,0 -1.191993,0.527729 -1.191993,1.177967 0,0.650237 0.534013,1.177966 1.191993,1.177966 h 4.767972 c 0.65798,0 1.191993,-0.527729 1.191993,-1.177966 0,-0.650238 -0.534013,-1.177967 -1.191993,-1.177967 z m 0,-4.711864 h -4.767972 c -0.65798,0 -1.191993,0.527729 -1.191993,1.177966 0,0.650237 0.534013,1.177966 1.191993,1.177966 h 4.767972 c 0.65798,0 1.191993,-0.527729 1.191993,-1.177966 0,-0.650237 -0.534013,-1.177966 -1.191993,-1.177966 z m 0,-4.711864 h -4.767972 c -0.65798,0 -1.191993,0.527728 -1.191993,1.177966 0,0.650237 0.534013,1.177966 1.191993,1.177966 h 4.767972 c 0.65798,0 1.191993,-0.527729 1.191993,-1.177966 0,-0.650238 -0.534013,-1.177966 -1.191993,-1.177966 z m -4.767972,-2.355933 h 4.767972 c 0.65798,0 1.191993,-0.527728 1.191993,-1.177966 0,-0.650237 -0.534013,-1.177966 -1.191993,-1.177966 h -4.767972 c -0.65798,0 -1.191993,0.527729 -1.191993,1.177966 0,0.650238 0.534013,1.177966 1.191993,1.177966 z m -9.535944,44.762712 c -0.65798,0 -1.191993,0.527729 -1.191993,1.177966 v 4.711865 c 0,0.650237 0.534013,1.177966 1.191993,1.177966 0.65798,0 1.191993,-0.527729 1.191993,-1.177966 v -4.711865 c 0,-0.650237 -0.534013,-1.177966 -1.191993,-1.177966 z m -4.767972,0 c -0.65798,0 -1.191993,0.527729 -1.191993,1.177966 v 4.711865 c 0,0.650237 0.534013,1.177966 1.191993,1.177966 0.65798,0 1.191993,-0.527729 1.191993,-1.177966 v -4.711865 c 0,-0.650237 -0.534013,-1.177966 -1.191993,-1.177966 z m -4.767972,0 c -0.65798,0 -1.191993,0.527729 -1.191993,1.177966 v 4.711865 c 0,0.650237 0.534013,1.177966 1.191993,1.177966 0.65798,0 1.191993,-0.527729 1.191993,-1.177966 v -4.711865 c 0,-0.650237 -0.534013,-1.177966 -1.191993,-1.177966 z m -4.767972,0 c -0.65798,0 -1.191993,0.527729 -1.191993,1.177966 v 4.711865 c 0,0.650237 0.534013,1.177966 1.191993,1.177966 0.65798,0 1.191993,-0.527729 1.191993,-1.177966 v -4.711865 c 0,-0.650237 -0.534013,-1.177966 -1.191993,-1.177966 z m -4.767972,0 c -0.65798,0 -1.191993,0.527729 -1.191993,1.177966 v 4.711865 c 0,0.650237 0.534013,1.177966 1.191993,1.177966 0.65798,0 1.191993,-0.527729 1.191993,-1.177966 v -4.711865 c 0,-0.650237 -0.534013,-1.177966 -1.191993,-1.177966 z m -4.767972,0 c -0.65798,0 -1.191993,0.527729 -1.191993,1.177966 v 4.711865 c 0,0.650237 0.534013,1.177966 1.191993,1.177966 0.65798,0 1.191993,-0.527729 1.191993,-1.177966 v -4.711865 c 0,-0.650237 -0.534013,-1.177966 -1.191993,-1.177966 z m -4.767972,0 c -0.65798,0 -1.191993,0.527729 -1.191993,1.177966 v 4.711865 c 0,0.650237 0.534013,1.177966 1.191993,1.177966 0.65798,0 1.191993,-0.527729 1.191993,-1.177966 v -4.711865 c 0,-0.650237 -0.534013,-1.177966 -1.191993,-1.177966 z m -4.767972,0 c -0.65798,0 -1.191993,0.527729 -1.191993,1.177966 v 4.711865 c 0,0.650237 0.534013,1.177966 1.191993,1.177966 0.65798,0 1.191993,-0.527729 1.191993,-1.177966 v -4.711865 c 0,-0.650237 -0.534013,-1.177966 -1.191993,-1.177966 z m -4.767972,0 c -0.65798,0 -1.191993,0.527729 -1.191993,1.177966 v 4.711865 c 0,0.650237 0.534013,1.177966 1.191993,1.177966 0.65798,0 1.191993,-0.527729 1.191993,-1.177966 v -4.711865 c 0,-0.650237 -0.534013,-1.177966 -1.191993,-1.177966 z m 38.143776,-61.254237 c -0.65798,0 -1.191993,0.527729 -1.191993,1.177966 v 4.711865 c 0,0.650237 0.534013,1.177966 1.191993,1.177966 0.65798,0 1.191993,-0.527729 1.191993,-1.177966 v -4.711865 c 0,-0.650237 -0.534013,-1.177966 -1.191993,-1.177966 z m -4.767972,0 c -0.65798,0 -1.191993,0.527729 -1.191993,1.177966 v 4.711865 c 0,0.650237 0.534013,1.177966 1.191993,1.177966 0.65798,0 1.191993,-0.527729 1.191993,-1.177966 v -4.711865 c 0,-0.650237 -0.534013,-1.177966 -1.191993,-1.177966 z m -4.767972,0 c -0.65798,0 -1.191993,0.527729 -1.191993,1.177966 v 4.711865 c 0,0.650237 0.534013,1.177966 1.191993,1.177966 0.65798,0 1.191993,-0.527729 1.191993,-1.177966 v -4.711865 c 0,-0.650237 -0.534013,-1.177966 -1.191993,-1.177966 z m -4.767972,0 c -0.65798,0 -1.191993,0.527729 -1.191993,1.177966 v 4.711865 c 0,0.650237 0.534013,1.177966 1.191993,1.177966 0.65798,0 1.191993,-0.527729 1.191993,-1.177966 v -4.711865 c 0,-0.650237 -0.534013,-1.177966 -1.191993,-1.177966 z m -4.767972,0 c -0.65798,0 -1.191993,0.527729 -1.191993,1.177966 v 4.711865 c 0,0.650237 0.534013,1.177966 1.191993,1.177966 0.65798,0 1.191993,-0.527729 1.191993,-1.177966 v -4.711865 c 0,-0.650237 -0.534013,-1.177966 -1.191993,-1.177966 z m -4.767972,0 c -0.65798,0 -1.191993,0.527729 -1.191993,1.177966 v 4.711865 c 0,0.650237 0.534013,1.177966 1.191993,1.177966 0.65798,0 1.191993,-0.527729 1.191993,-1.177966 v -4.711865 c 0,-0.650237 -0.534013,-1.177966 -1.191993,-1.177966 z m -4.767972,0 c -0.65798,0 -1.191993,0.527729 -1.191993,1.177966 v 4.711865 c 0,0.650237 0.534013,1.177966 1.191993,1.177966 0.65798,0 1.191993,-0.527729 1.191993,-1.177966 v -4.711865 c 0,-0.650237 -0.534013,-1.177966 -1.191993,-1.177966 z m -4.767972,0 c -0.65798,0 -1.191993,0.527729 -1.191993,1.177966 v 4.711865 c 0,0.650237 0.534013,1.177966 1.191993,1.177966 0.65798,0 1.191993,-0.527729 1.191993,-1.177966 v -4.711865 c 0,-0.650237 -0.534013,-1.177966 -1.191993,-1.177966 z m -4.767972,0 c -0.65798,0 -1.191993,0.527729 -1.191993,1.177966 v 4.711865 c 0,0.650237 0.534013,1.177966 1.191993,1.177966 0.65798,0 1.191993,-0.527729 1.191993,-1.177966 v -4.711865 c 0,-0.650237 -0.534013,-1.177966 -1.191993,-1.177966 z"
     id="path2"
     inkscape:connector-curvature="0"
     style="fill:#552200;stroke-width:2.36991763" />
  <path
     id="path4580"
     d="M 34.178579,15.109271 32.60598,14.134904 c -0.01326,-0.15332 -0.0283,-0.306281 -0.04478,-0.458526 l 1.354085,-1.260946 c 0.137558,-0.128244 0.199172,-0.318102 0.161918,-0.501513 -0.03618,-0.184485 -0.165501,-0.336372 -0.341386,-0.40121 l -1.730219,-0.644802 c -0.04335,-0.149737 -0.08884,-0.2984 -0.135409,-0.447779 L 32.94844,8.922754 C 33.058415,8.770509 33.080982,8.572412 33.00934,8.399748 32.9377,8.226726 32.781152,8.102781 32.597382,8.072332 L 30.774027,7.775723 C 30.703097,7.637449 30.629302,7.501324 30.554793,7.367349 l 0.766598,-1.68365 c 0.07845,-0.171231 0.06233,-0.36897 -0.04227,-0.526588 C 31.174878,5.000925 30.998272,4.909578 30.809846,4.916743 l -1.852013,0.06448 C 28.862183,4.861576 28.76475,4.743004 28.665522,4.626582 L 29.091807,2.824718 C 29.134797,2.641666 29.080707,2.448584 28.947443,2.316041 28.81526,2.183499 28.623252,2.12869 28.438768,2.171677 l -1.801864,0.426286 c -0.116781,-0.09887 -0.235353,-0.196665 -0.35536,-0.29231 l 0.06484,-1.852015 c 0.0072,-0.18735 -0.08418,-0.365387 -0.240369,-0.469272 -0.156543,-0.104602 -0.354639,-0.120363 -0.526588,-0.04263 L 23.89936,0.708334 C 23.763593,0.633824 23.627469,0.56003 23.490985,0.488743 l -0.297323,-1.823357 c -0.03009,-0.184843 -0.154036,-0.341745 -0.327418,-0.411956 -0.173021,-0.072 -0.372552,-0.04872 -0.523006,0.0609 l -1.497373,1.078253 c -0.147588,-0.04693 -0.295893,-0.09206 -0.444197,-0.13505 l -0.644802,-1.730219 c -0.06555,-0.176246 -0.217442,-0.305565 -0.40121,-0.342104 -0.184127,-0.03618 -0.372553,0.02508 -0.501513,0.161917 l -1.260946,1.354084 c -0.152245,-0.01684 -0.305565,-0.03224 -0.458526,-0.04478 l -0.974368,-1.576183 c -0.09851,-0.159409 -0.272966,-0.256488 -0.462108,-0.256488 -0.189141,0 -0.361805,0.09708 -0.458525,0.256488 l -0.974368,1.576183 c -0.15332,0.01254 -0.306639,0.02794 -0.458526,0.04478 L 12.54583,-2.652873 c -0.127886,-0.136842 -0.317744,-0.198098 -0.501513,-0.161917 -0.184485,0.0369 -0.336371,0.165857 -0.40121,0.342103 l -0.644802,1.730219 c -0.149737,0.04299 -0.298042,0.08848 -0.444197,0.13505 L 9.056735,-1.685671 C 8.90449,-1.795645 8.706033,-1.81893 8.533728,-1.746571 8.360707,-1.674931 8.236402,-1.518024 8.206312,-1.334614 L 7.908986,0.488743 C 7.771428,0.560033 7.635305,0.633465 7.500611,0.708334 L 5.820544,-0.058264 C 5.649671,-0.136354 5.451575,-0.120234 5.293956,-0.015634 5.137771,0.088251 5.046423,0.266288 5.053587,0.453638 l 0.06448,1.852015 C 4.998422,2.401303 4.87985,2.499093 4.76271,2.597963 L 2.960847,2.171677 C 2.777794,2.129047 2.584714,2.183497 2.452169,2.316041 2.318912,2.448942 2.264818,2.640592 2.307805,2.824718 L 2.730509,4.626582 C 2.631999,4.743363 2.534562,4.861576 2.438916,4.981223 L 0.5869,4.916743 C 0.400266,4.911343 0.221512,5.000923 0.117628,5.157111 0.013026,5.312579 -0.002734,5.511752 0.074998,5.683699 l 0.766599,1.68365 C 0.767087,7.502399 0.693294,7.638524 0.622008,7.775723 L -1.20135,8.072332 c -0.185201,0.03009 -0.341386,0.154036 -0.411956,0.327416 -0.07165,0.173739 -0.04836,0.372552 0.0609,0.523006 l 1.078253,1.497374 c -0.04693,0.147946 -0.09242,0.296609 -0.135409,0.447779 l -1.730219,0.644802 c -0.175529,0.06555 -0.304849,0.217442 -0.341389,0.40121 -0.03654,0.184127 0.02471,0.372552 0.161918,0.501513 l 1.354085,1.260946 c -0.01685,0.152245 -0.03188,0.305564 -0.04478,0.458526 l -1.572602,0.974367 c -0.15941,0.09851 -0.256488,0.272608 -0.256488,0.462108 0,0.189501 0.09708,0.361806 0.256488,0.458527 l 1.572602,0.974367 c 0.0129,0.15332 0.02794,0.306281 0.04478,0.458526 l -1.354085,1.260946 c -0.137199,0.127886 -0.198455,0.317744 -0.161918,0.501513 0.03654,0.184485 0.16586,0.336013 0.341389,0.40121 l 1.730219,0.644802 c 0.04298,0.149737 0.08848,0.2984 0.135409,0.447779 l -1.078253,1.497374 c -0.109617,0.152603 -0.132901,0.3507 -0.0609,0.523006 0.072,0.173738 0.228545,0.297684 0.415537,0.327415 l 1.823358,0.296609 c 0.07129,0.138275 0.144363,0.274401 0.219592,0.408375 l -0.766598,1.680067 c -0.07809,0.170873 -0.06197,0.368972 0.04263,0.526588 0.104601,0.156544 0.282639,0.247892 0.469272,0.240369 l 1.848432,-0.06484 c 0.09636,0.120365 0.193442,0.238219 0.292311,0.355359 l -0.422704,1.801862 c -0.04299,0.182693 0.0111,0.372552 0.144363,0.505097 0.132184,0.133615 0.32455,0.186992 0.508679,0.144005 L 4.76343,28.537631 c 0.117137,0.09959 0.235709,0.196305 0.355357,0.291593 l -0.06448,1.852016 c -0.0072,0.187351 0.08418,0.365388 0.240368,0.469272 0.155468,0.104243 0.35464,0.120003 0.526588,0.04191 l 1.680068,-0.766598 c 0.135408,0.07523 0.271534,0.148306 0.408374,0.219592 l 0.297326,1.823358 c 0.03009,0.185557 0.154036,0.34246 0.327416,0.415537 0.173022,0.072 0.372553,0.04872 0.523005,-0.06054 l 1.497375,-1.078253 c 0.147946,0.04693 0.296609,0.09278 0.447779,0.135767 l 0.644802,1.730219 c 0.06555,0.175529 0.217441,0.305564 0.40121,0.341387 0.184127,0.03725 0.372552,-0.02437 0.501513,-0.161918 l 1.260946,-1.354083 c 0.152245,0.01756 0.305564,0.03224 0.458526,0.04585 l 0.974367,1.5726 c 0.09815,0.158692 0.272608,0.256488 0.458526,0.256488 0.185918,0 0.361806,-0.09744 0.462108,-0.256488 l 0.974368,-1.5726 c 0.153319,-0.01361 0.306281,-0.0283 0.458526,-0.04585 l 1.260946,1.354083 c 0.127886,0.137558 0.317744,0.199172 0.501512,0.161918 0.184485,-0.03618 0.336372,-0.165858 0.401211,-0.341387 l 0.644802,-1.730219 c 0.149737,-0.04299 0.298399,-0.08884 0.447779,-0.135767 l 1.497373,1.078253 c 0.152245,0.109258 0.350701,0.132542 0.523006,0.06054 0.17338,-0.07129 0.297326,-0.228545 0.327416,-0.415537 l 0.297326,-1.823358 c 0.137557,-0.07129 0.273683,-0.145439 0.408375,-0.219592 l 1.680067,0.766598 c 0.170872,0.07809 0.368971,0.06233 0.526588,-0.04191 0.156185,-0.104602 0.247174,-0.281921 0.240368,-0.469272 l -0.06448,-1.852016 c 0.119648,-0.09565 0.238219,-0.192007 0.354998,-0.291593 l 1.801864,0.422704 c 0.183053,0.04299 0.376136,-0.01039 0.508678,-0.144005 0.13326,-0.132901 0.187351,-0.323835 0.144364,-0.505097 l -0.422704,-1.801862 c 0.09887,-0.11714 0.196306,-0.234994 0.291593,-0.355359 l 1.852016,0.06484 c 0.186633,0.0075 0.365388,-0.08383 0.469272,-0.240369 0.104601,-0.156185 0.120721,-0.354998 0.04227,-0.526588 L 30.56554,23.771828 c 0.07487,-0.135767 0.148306,-0.27189 0.219233,-0.408375 l 1.823358,-0.296609 c 0.185558,-0.02973 0.341745,-0.153677 0.411956,-0.327415 0.07164,-0.173022 0.04908,-0.372553 -0.0609,-0.523006 l -1.078253,-1.497374 c 0.04657,-0.147946 0.09206,-0.296609 0.135408,-0.447779 l 1.730219,-0.644802 c 0.175888,-0.06591 0.305564,-0.217442 0.341386,-0.40121 0.03726,-0.184127 -0.02436,-0.372552 -0.161917,-0.501513 l -1.354083,-1.260946 c 0.01648,-0.152245 0.03152,-0.305565 0.04478,-0.458526 l 1.5726,-0.974367 c 0.15941,-0.09815 0.256488,-0.272609 0.256488,-0.458527 0,-0.185918 -0.09672,-0.361805 -0.256129,-0.462108 z M 23.646814,28.184424 c -0.601817,-0.129679 -0.981533,-0.723611 -0.852573,-1.325428 0.128603,-0.601814 0.720031,-0.985114 1.321845,-0.856153 0.601814,0.128603 0.985114,0.723611 0.856153,1.325428 -0.128959,0.601814 -0.720027,0.985112 -1.321844,0.856153 z m -0.533753,-3.618057 c -0.548082,-0.117496 -1.089,0.231414 -1.203631,0.780927 l -0.558829,2.607865 c -1.723054,0.780928 -3.653878,1.21796 -5.659928,1.21796 -2.063367,0 -4.012102,-0.454942 -5.767395,-1.271692 L 9.364448,25.293561 C 9.246952,24.74548 8.708899,24.394421 8.160817,24.512634 L 5.857442,25.006983 C 5.431155,24.566367 5.033528,24.097095 4.66814,23.602746 h 11.212391 c 0.126811,0 0.211352,-0.02291 0.211352,-0.138272 v -3.97628 c 0,-0.115348 -0.08454,-0.138274 -0.211352,-0.138274 h -3.277743 v -2.511146 h 3.542828 c 0.323476,0 1.730219,0.09242 2.177998,1.891419 0.140782,0.551664 0.451362,2.349945 0.662714,2.926685 0.210635,0.644802 1.067505,1.934405 1.980974,1.934405 h 5.588285 c 0.0634,0 0.13111,-0.0072 0.202397,-0.02007 -0.386882,0.526588 -0.813169,1.024518 -1.268112,1.490209 l -2.35711,-0.505094 z M 7.60199,28.130689 c -0.601816,0.129678 -1.192885,-0.253622 -1.321847,-0.856153 -0.1286,-0.601814 0.253625,-1.196467 0.856156,-1.325425 0.601815,-0.128603 1.192883,0.254695 1.321844,0.856153 0.128603,0.601814 -0.25398,1.196466 -0.856153,1.325425 z M 3.339132,10.900147 c 0.249323,0.562411 -0.0043,1.221542 -0.565995,1.472298 -0.56241,0.249682 -1.217959,-0.0043 -1.468715,-0.565993 -0.250755,-0.561694 0.0043,-1.221542 0.565994,-1.472298 0.562411,-0.249323 1.217958,0.0043 1.468716,0.565993 z m -1.307515,3.09505 2.400094,-1.067506 C 4.94397,12.700219 5.176816,12.100195 4.947554,11.587936 L 4.453205,10.470279 h 1.941571 v 8.74065 H 2.49014 C 2.150188,18.014463 1.967136,16.753517 1.967136,15.449583 c 0,-0.49793 0.02687,-0.988696 0.07845,-1.472297 z m 10.531766,-0.84899 v -2.579208 h 4.621081 c 0.238935,0 1.687232,0.276191 1.687232,1.357667 0,0.89914 -1.110492,1.221541 -2.023962,1.221541 h -4.29868 z m 16.800676,2.321288 c 0,0.342461 -0.01255,0.680624 -0.03762,1.017354 h -1.407816 c -0.140782,0 -0.197381,0.09242 -0.197381,0.230338 v 0.644802 c 0,1.518867 -0.856153,1.852015 -1.608422,1.934406 -0.716449,0.0806 -1.508122,-0.299475 -1.604842,-0.73794 -0.422703,-2.375021 -1.124821,-2.880116 -2.235314,-3.761346 1.379161,-0.874065 2.812054,-2.167251 2.812054,-3.904634 0,-1.866343 -1.278857,-3.041316 -2.149342,-3.618056 C 21.710258,6.466417 20.356173,6.305217 19.990786,6.305217 H 5.446918 c 1.97381,-2.199492 4.656903,-3.761346 7.665979,-4.334503 l 1.71589,1.798281 c 0.386882,0.404793 1.028101,0.422704 1.436476,0.03296 L 18.18534,1.967852 c 4.012101,0.748686 7.415222,3.249085 9.385451,6.698776 l -1.31468,2.966089 c -0.226754,0.512259 0.0047,1.114074 0.515843,1.339755 l 2.529056,1.124821 c 0.0437,0.44778 0.06663,0.902723 0.06663,1.361249 z M 14.82019,0.457937 c 0.444197,-0.426286 1.149897,-0.408375 1.5726,0.03618 0.422704,0.444197 0.408375,1.149897 -0.0369,1.576182 -0.444197,0.426286 -1.149896,0.408375 -1.5726,-0.03654 -0.422704,-0.444197 -0.408375,-1.149898 0.0369,-1.576183 z m 13.039331,10.495944 c 0.248965,-0.562411 0.906304,-0.81675 1.468715,-0.565993 0.562411,0.249323 0.81675,0.909887 0.565992,1.472298 -0.248965,0.56241 -0.906305,0.816749 -1.468716,0.565993 -0.56241,-0.249324 -0.816749,-0.909888 -0.565991,-1.472298 z"
     inkscape:connector-curvature="0"
     style="stroke-width:0.35822335;fill:#552200;fill-opacity:1" />
</svg>
